<?xml version="1.0" encoding="utf-8"?>
<!-- Generator: Adobe Illustrator 15.0.0, SVG Export Plug-In . SVG Version: 6.00 Build 0)  -->
<!DOCTYPE svg PUBLIC "-//W3C//DTD SVG 1.1//EN" "http://www.w3.org/Graphics/SVG/1.1/DTD/svg11.dtd">
<svg version="1.1" id="Layer_1" xmlns="http://www.w3.org/2000/svg" xmlns:xlink="http://www.w3.org/1999/xlink" x="0px" y="0px"
	 width="100px" height="103.75px" viewBox="0 -2.25 100 103.75" enable-background="new 0 -2.25 100 103.75" xml:space="preserve">
<g id="Your_Icon">
	<path d="M74.51,90.021L60,60V46c0-3.021-1.055-4-4-4H44c-2.851,0-4,0.876-4,4v14L25.276,90.436
		c-0.724,1.506-0.576,4.226,0.501,5.938c0.679,1.075,2.415,3.628,4.845,3.628h39.319c2.455,0,3.723-2.571,4.402-3.655
		C75.311,94.809,75.307,91.688,74.51,90.021z M45,61V46h10v15l8.057,18H37L45,61z"/>
	<path d="M47.658,37.658c4.223,0,7.656-3.436,7.656-7.658c0-4.223-3.434-7.658-7.656-7.658C43.436,22.342,40,25.777,40,30
		C40,34.222,43.436,37.658,47.658,37.658z M47.658,26.171c2.111,0,3.828,1.717,3.828,3.829c0,2.111-1.716,3.829-3.828,3.829
		c-2.112,0-3.829-1.717-3.829-3.829S45.546,26.171,47.658,26.171z"/>
	<path d="M58.186,21c5.808,0,10.529-4.724,10.529-10.53c0-5.806-4.723-10.529-10.529-10.529c-5.805,0-10.527,4.724-10.527,10.529
		C47.658,16.276,52.381,21,58.186,21z M58.186,3.77c3.695,0,6.701,3.006,6.701,6.7c0,3.694-3.006,6.701-6.701,6.701
		c-3.692,0-6.699-3.006-6.699-6.701C51.486,6.775,54.492,3.77,58.186,3.77z"/>
</g>
</svg>
