<?xml version="1.0" encoding="utf-8"?>
<!-- Generator: Adobe Illustrator 15.0.0, SVG Export Plug-In . SVG Version: 6.00 Build 0)  -->
<!DOCTYPE svg PUBLIC "-//W3C//DTD SVG 1.1//EN" "http://www.w3.org/Graphics/SVG/1.1/DTD/svg11.dtd">
<svg version="1.1" xmlns="http://www.w3.org/2000/svg" xmlns:xlink="http://www.w3.org/1999/xlink" x="0px" y="0px" width="98.5px"
	 height="110px" viewBox="-5.95 11 98.5 110" enable-background="new -5.95 11 98.5 110" xml:space="preserve">
<g id="Layer_1" display="none">
	<path display="inline" fill="#231F20" d="M63.47,38.923c-1.075,0.04-2.147,0.561-2.939,1.431c-0.816,0.894-1.249,2.052-1.189,3.175
		c0.065,1.222,0.586,2.306,1.464,3.048c0.817,0.691,1.889,1.036,3.025,0.974c2.342-0.129,4.229-2.189,4.115-4.499
		c-0.057-1.232-0.598-2.338-1.521-3.119C65.608,39.243,64.557,38.883,63.47,38.923z"/>
	<path display="inline" fill="#231F20" d="M64.011,78.063c-5.164,4.089-10.33,8.179-15.486,12.278
		c-0.178,0.144-0.347,0.359-0.369,0.596c-0.323,3.315-0.611,6.639-0.941,10.255c2.271-0.875,4.336-1.595,6.301-2.447
		c3.93-1.71,7.721-3.598,10.596-6.547c1.324-1.359,2.584-2.797,2.616-5.004c0.044-3.041-1.006-6.204-2.138-9.482
		C64.329,77.868,64.155,77.951,64.011,78.063z"/>
	<path display="inline" fill="#231F20" d="M28.802,48.522c-2.573-0.713-7.256-1.066-9.328-0.729
		c-2.575,0.415-3.973,2.113-5.176,3.95c-3.322,5.064-4.552,11.263-5.686,17.731c3.421-0.903,6.631-1.736,9.815-2.609
		c0.306-0.083,0.527-0.375,0.674-0.643c2.553-4.624,5.089-9.26,7.629-13.895C27.417,51.074,28.099,49.813,28.802,48.522z"/>
	<path display="inline" fill="#231F20" d="M82.887,42.577c1.879-6.163,2.424-12.826,1.803-19.915
		c-0.114-1.311-0.334-2.648-0.502-3.959c-0.203-0.057-0.275-0.093-0.333-0.09c-0.751,0.038-1.495,0.085-2.247,0.119
		c-8.301,0.362-15.698,2.3-22.253,5.729c-8.714,4.553-15.161,11.296-20.36,19.154c-3.699,5.593-6.934,11.535-10.325,17.36
		c-1.526,2.625-2.926,5.34-4.433,8.102c2.642,2.231,5.26,4.443,7.878,6.655L45.79,59.562c1.092-1.291,3.022-1.45,4.312-0.359
		c1.29,1.09,1.45,3.021,0.359,4.31L36.79,79.678c2.539,2.147,5.08,4.291,7.614,6.432c0.124-0.084,0.221-0.141,0.305-0.21
		c2.961-2.436,5.914-4.882,8.882-7.313c7.201-5.903,14.347-11.859,20.145-19.09C77.741,54.501,80.936,48.961,82.887,42.577z
		 M64.159,52.934c-2.549,0.121-4.974-0.674-6.826-2.241c-2.048-1.732-3.248-4.243-3.372-7.066c-0.109-2.484,0.852-5.019,2.638-6.95
		c1.76-1.904,4.16-3.044,6.587-3.127c2.502-0.086,4.894,0.727,6.738,2.285c2.06,1.743,3.266,4.233,3.395,7.014
		C73.558,48.069,69.363,52.688,64.159,52.934z"/>
</g>
<g id="Layer_2">
	<path d="M85.549,51.655c4.71-10.162,5.823-21.679,3.257-35.417c-0.259-1.272-1.606-2.56-3.547-2.6
		c-6.273-0.131-12.232,0.464-17.844,1.863C57.45,17.99,49.461,22.908,42.87,29.543c-4.225,4.251-7.756,9.067-11.029,14.091
		c-0.168,0.26-0.598,0.464-0.962,0.419c-3.36-0.425-6.758-1.047-10.084-1.348c-4.056-0.367-7.225,0.771-9.478,3.293
		c-1.704,1.907-3.031,4.076-4.029,6.483c-2.466,5.943-3.664,12.49-4.458,19.227c-0.058,0.502-0.006,1.111,0.229,1.645
		c0.726,1.678,2.376,2.507,4.066,2.072c4.359-1.127,8.705-2.272,13.039-3.431c0.55-0.147,0.951-0.047,1.531,0.444
		c2.561,2.178,5.136,4.338,7.7,6.51l-6.512,7.699c-1.09,1.29-0.93,3.22,0.361,4.312c1.289,1.09,3.219,0.93,4.31-0.36l6.514-7.7
		c2.654,2.243,5.303,4.497,7.961,6.733c0.586,0.489,0.729,0.865,0.674,1.437c-0.385,4.089-0.745,8.189-1.067,12.302
		c-0.046,0.596-0.015,1.307,0.278,1.917c0.814,1.716,2.476,2.479,4.169,1.905c3.744-1.274,7.53-2.484,11.125-3.969
		c4.271-1.764,8.232-3.938,11.318-7.105c2.395-2.461,3.981-5.373,3.393-9.517c-0.486-3.433-1.449-6.907-2.929-10.363
		c-0.745-1.743-0.587-2.707,0.506-3.711C76.029,66.532,81.748,59.862,85.549,51.655z M19.102,66.224
		c-0.147,0.268-0.369,0.56-0.674,0.643c-3.184,0.873-6.394,1.706-9.815,2.609c1.134-6.469,2.363-12.667,5.686-17.731
		c1.204-1.837,2.602-3.535,5.176-3.95c2.072-0.337,6.755,0.016,9.328,0.729c-0.703,1.291-1.385,2.552-2.071,3.807
		C24.191,56.964,21.655,61.6,19.102,66.224z M64.111,92.198c-2.875,2.949-6.666,4.837-10.596,6.547
		c-1.965,0.853-4.03,1.572-6.301,2.447c0.33-3.616,0.618-6.939,0.941-10.255c0.022-0.236,0.191-0.452,0.369-0.596
		c5.156-4.1,10.322-8.189,15.486-12.278c0.144-0.112,0.317-0.195,0.578-0.352c1.132,3.278,2.182,6.441,2.138,9.482
		C66.695,89.401,65.435,90.839,64.111,92.198z M53.591,78.586c-2.968,2.432-5.921,4.878-8.882,7.313
		c-0.084,0.069-0.181,0.126-0.305,0.21c-2.534-2.141-5.075-4.284-7.614-6.432l13.671-16.165c1.091-1.289,0.931-3.22-0.359-4.31
		c-1.289-1.091-3.22-0.932-4.312,0.359L32.115,75.731c-2.618-2.212-5.236-4.424-7.878-6.655c1.507-2.762,2.907-5.477,4.433-8.102
		c3.391-5.825,6.625-11.767,10.325-17.36c5.199-7.858,11.646-14.602,20.36-19.154c6.555-3.428,13.952-5.366,22.253-5.729
		c0.752-0.034,1.496-0.082,2.247-0.119c0.058-0.003,0.13,0.033,0.333,0.09c0.168,1.311,0.388,2.648,0.502,3.959
		c0.621,7.089,0.076,13.752-1.803,19.915c-1.951,6.384-5.146,11.924-9.152,16.919C67.937,66.727,60.792,72.683,53.591,78.586z"/>
	<path d="M69.924,35.834c-1.845-1.559-4.236-2.371-6.738-2.285c-2.427,0.083-4.827,1.223-6.587,3.127
		c-1.786,1.932-2.747,4.466-2.638,6.95c0.124,2.823,1.324,5.334,3.372,7.066c1.853,1.567,4.277,2.362,6.826,2.241
		c5.204-0.246,9.399-4.865,9.159-10.085C73.189,40.068,71.983,37.577,69.924,35.834z M63.831,47.552
		c-1.137,0.062-2.208-0.283-3.025-0.974c-0.878-0.742-1.398-1.826-1.464-3.048c-0.06-1.124,0.373-2.281,1.189-3.175
		c0.792-0.87,1.864-1.392,2.939-1.431c1.087-0.04,2.138,0.319,2.954,1.01c0.924,0.781,1.465,1.887,1.521,3.119
		C68.059,45.362,66.173,47.423,63.831,47.552z"/>
	
		<line fill="none" stroke="#231F20" stroke-width="5" stroke-linecap="round" stroke-miterlimit="10" x1="12.05" y1="85" x2="-0.95" y2="98"/>
	
		<line fill="none" stroke="#231F20" stroke-width="5" stroke-linecap="round" stroke-miterlimit="10" x1="15.55" y1="100.5" x2="2.807" y2="113.5"/>
	
		<line fill="none" stroke="#231F20" stroke-width="5" stroke-linecap="round" stroke-miterlimit="10" x1="31.339" y1="101.94" x2="16.224" y2="117.175"/>
</g>
<g id="Layer_3" display="none">
	<path display="inline" fill="none" stroke="#231F20" stroke-width="4" stroke-miterlimit="10" d="M85.549,51.655
		c4.71-10.162,5.823-21.679,3.257-35.417c-0.259-1.272-1.606-2.56-3.547-2.6c-6.273-0.131-12.232,0.464-17.844,1.863
		C57.45,17.99,49.461,22.908,42.87,29.543c-4.225,4.251-7.756,9.067-11.029,14.091c-0.168,0.26-0.598,0.464-0.962,0.419
		c-3.36-0.425-6.758-1.047-10.084-1.348c-4.056-0.367-7.225,0.771-9.478,3.293c-1.704,1.907-3.031,4.076-4.029,6.483
		c-2.466,5.943-3.664,12.49-4.458,19.227c-0.058,0.502-0.006,1.111,0.229,1.645c0.726,1.678,2.376,2.507,4.066,2.072
		c4.359-1.127,8.705-2.272,13.039-3.431c0.55-0.147,0.951-0.047,1.531,0.444c2.561,2.178,5.136,4.338,7.7,6.51l-6.512,7.699
		c-1.09,1.29-0.93,3.22,0.361,4.312c1.289,1.09,3.219,0.93,4.31-0.36l6.514-7.7c2.654,2.243,5.303,4.497,7.961,6.733
		c0.586,0.489,0.729,0.865,0.674,1.437c-0.385,4.089-0.745,8.189-1.067,12.302c-0.046,0.596-0.015,1.307,0.278,1.917
		c0.814,1.716,2.476,2.479,4.169,1.905c3.744-1.274,7.53-2.484,11.125-3.969c4.271-1.764,8.232-3.938,11.318-7.105
		c2.395-2.461,3.981-5.373,3.393-9.517c-0.486-3.433-1.449-6.907-2.929-10.363c-0.745-1.743-0.587-2.707,0.506-3.711
		C76.029,66.532,81.748,59.862,85.549,51.655z"/>
</g>
</svg>
