<?xml version="1.0" encoding="utf-8"?>
<!-- Generator: Adobe Illustrator 15.0.0, SVG Export Plug-In . SVG Version: 6.00 Build 0)  -->
<!DOCTYPE svg PUBLIC "-//W3C//DTD SVG 1.1//EN" "http://www.w3.org/Graphics/SVG/1.1/DTD/svg11.dtd">
<svg version="1.1" xmlns="http://www.w3.org/2000/svg" xmlns:xlink="http://www.w3.org/1999/xlink" x="0px" y="0px"
	 width="734.731px" height="237.22px" viewBox="0 0 734.731 237.22" enable-background="new 0 0 734.731 237.22"
	 xml:space="preserve">
<g id="Layer_2" display="none">
	<rect display="inline" fill="#36BBD6" width="734.731" height="362.22"/>
</g>
<g id="Layer_4" display="none">
	<rect display="inline" width="734.731" height="362.22"/>
</g>
<g id="Layer_1">
	<path fill="none" stroke="#1B3764" stroke-width="8" stroke-miterlimit="10" d="M163.688,81.466V53.979
		c0-3.948-2.9-7.149-6.479-7.149H39.526c-3.579,0-6.477,3.201-6.477,7.149v82.991c0,3.948,2.898,7.145,6.477,7.145
		c0,0,20.213-0.272,21.294,0.85c3.608,3.746-4.92,18.115-13.557,23.675c-9.45,6.086,32.341,6.327,40.129-23.727
		c0.122-0.466,0.5-0.593,10.977-0.708"/>
	<path fill="none" stroke="#F15A2C" stroke-width="8" stroke-linecap="round" stroke-miterlimit="10" d="M173.406,172.529
		c-0.299-1.126-58.493-0.644-58.493-0.644c-2.995,0-5.426-2.581-5.426-5.778V99.066c0-3.191,2.431-5.775,5.426-5.775h98.598
		c3,0,5.427,2.584,5.427,5.775v67.045c0,3.193-2.431,5.778-5.427,5.778c0,0-16.936-0.221-17.841,0.688
		c-3.026,3.031,4.12,14.634,11.361,19.123C214.947,196.612,179.934,196.809,173.406,172.529z"/>
	<g>
		<path fill="#1B3764" d="M281.515,96.65c-2.914-0.874-5.998-1.967-9.251-3.278c-3.255-1.311-6.216-2.889-8.886-4.734
			c-2.672-1.844-4.88-4.006-6.628-6.483c-1.749-2.477-2.623-5.317-2.623-8.522c0-3.689,0.824-6.967,2.477-9.833
			c1.65-2.863,3.788-5.292,6.41-7.284c2.622-1.99,5.559-3.497,8.813-4.516c3.253-1.02,6.483-1.53,9.688-1.53
			c2.135,0,4.345,0.171,6.628,0.51c2.281,0.342,4.539,0.947,6.774,1.821c2.233,0.874,4.394,2.089,6.482,3.642
			c2.088,1.555,4.007,3.546,5.755,5.973c0.583,0.874,0.874,1.894,0.874,3.059c0,1.361-0.414,2.502-1.238,3.424
			c-0.826,0.924-1.919,1.384-3.278,1.384c-1.748,0-3.109-0.776-4.079-2.331c-1.165-1.941-2.526-3.471-4.078-4.589
			c-1.555-1.115-3.133-1.966-4.735-2.549c-1.603-0.583-3.205-0.947-4.807-1.092c-1.603-0.146-3.037-0.219-4.298-0.219
			c-1.944,0-3.983,0.244-6.119,0.729c-2.138,0.487-4.104,1.263-5.9,2.331c-1.798,1.07-3.278,2.502-4.443,4.298
			c-1.166,1.798-1.748,4.056-1.748,6.774c0,1.944,0.849,3.692,2.549,5.245c1.698,1.555,3.763,2.914,6.191,4.079
			c2.426,1.166,4.953,2.185,7.576,3.059c2.622,0.874,4.854,1.653,6.701,2.331c3.689,1.361,7.04,2.818,10.052,4.37
			c3.009,1.555,5.608,3.401,7.794,5.536c2.185,2.137,3.883,4.614,5.099,7.43c1.213,2.818,1.821,6.168,1.821,10.052
			c0,3.886-0.827,7.527-2.477,10.926c-1.653,3.401-3.861,6.337-6.629,8.814s-5.95,4.42-9.542,5.827
			c-3.594,1.409-7.334,2.112-11.218,2.112c-2.72,0-5.561-0.364-8.522-1.093c-2.963-0.728-5.779-1.748-8.449-3.059
			c-2.672-1.311-5.099-2.889-7.284-4.734c-2.185-1.844-3.86-3.883-5.026-6.119c-0.487-0.776-0.729-1.553-0.729-2.331
			c0-1.166,0.46-2.233,1.384-3.205c0.922-0.97,2.062-1.457,3.423-1.457c1.844,0,3.205,0.778,4.079,2.331
			c0.874,1.749,2.16,3.278,3.86,4.589c1.698,1.311,3.569,2.429,5.609,3.351c2.04,0.924,4.102,1.603,6.191,2.04
			c2.087,0.437,3.956,0.655,5.609,0.655c2.622,0,5.194-0.485,7.721-1.457c2.524-0.97,4.734-2.281,6.628-3.934
			c1.895-1.65,3.424-3.617,4.59-5.9c1.165-2.281,1.748-4.735,1.748-7.357s-0.51-4.903-1.53-6.847
			c-1.02-1.941-2.453-3.642-4.297-5.099c-1.847-1.457-4.031-2.768-6.556-3.933C287.146,98.69,284.428,97.622,281.515,96.65z"/>
		<path fill="#1B3764" d="M377.955,130.157c-3.204,3.594-7.065,6.679-11.581,9.25c-4.517,2.575-9.396,3.861-14.641,3.861
			c-4.857,0-9.396-0.874-13.621-2.623c-4.225-1.748-7.939-4.174-11.145-7.284c-3.205-3.107-5.731-6.797-7.575-11.072
			c-1.847-4.272-2.769-8.934-2.769-13.985c0-4.855,0.897-9.444,2.695-13.767c1.796-4.32,4.272-8.085,7.43-11.291
			c3.155-3.205,6.895-5.729,11.218-7.575c4.32-1.844,9.007-2.768,14.058-2.768c4.662,0,9.105,0.947,13.33,2.841
			c4.225,1.894,7.939,4.443,11.145,7.648s5.754,6.945,7.647,11.217c1.895,4.275,2.841,8.839,2.841,13.694v30.738
			c0,1.264-0.437,2.331-1.311,3.205s-1.944,1.311-3.205,1.311c-1.264,0-2.331-0.437-3.205-1.311s-1.312-1.941-1.312-3.205V130.157z
			 M377.955,108.305c0-3.592-0.681-6.993-2.039-10.198c-1.361-3.205-3.23-5.996-5.608-8.376c-2.381-2.378-5.172-4.248-8.377-5.608
			c-3.205-1.359-6.605-2.04-10.197-2.04c-3.595,0-6.97,0.681-10.125,2.04c-3.157,1.361-5.925,3.23-8.304,5.608
			c-2.381,2.381-4.25,5.172-5.608,8.376c-1.361,3.205-2.04,6.606-2.04,10.198c0,3.594,0.679,6.97,2.04,10.125
			c1.358,3.157,3.228,5.925,5.608,8.304c2.379,2.381,5.146,4.25,8.304,5.608c3.155,1.361,6.53,2.04,10.125,2.04
			c3.496,0,6.797-0.655,9.906-1.967c3.106-1.311,5.85-3.132,8.23-5.463c2.379-2.331,4.272-5.074,5.682-8.231
			C376.958,115.566,377.76,112.092,377.955,108.305z"/>
		<path fill="#1B3764" d="M397.04,54.84c0-1.261,0.437-2.331,1.311-3.205s1.942-1.311,3.205-1.311c1.262,0,2.331,0.437,3.205,1.311
			s1.312,1.944,1.312,3.205v84.057c0,1.263-0.438,2.331-1.312,3.205s-1.943,1.311-3.205,1.311c-1.263,0-2.331-0.437-3.205-1.311
			s-1.311-1.942-1.311-3.205V54.84z"/>
		<path fill="#1B3764" d="M422.68,112.529c0.485,3.109,1.505,5.998,3.06,8.668c1.553,2.672,3.471,4.979,5.754,6.92
			c2.281,1.944,4.881,3.474,7.794,4.589c2.914,1.118,5.973,1.675,9.178,1.675c3.592,0,6.943-0.655,10.052-1.967
			c3.107-1.311,5.875-3.132,8.305-5.463c0.874-0.874,1.941-1.311,3.204-1.311c1.262,0,2.331,0.437,3.205,1.311
			s1.312,1.944,1.312,3.205c0,1.263-0.438,2.331-1.312,3.205c-3.205,3.594-6.824,6.144-10.853,7.648
			c-4.031,1.507-8.668,2.258-13.913,2.258c-4.857,0-9.396-0.874-13.621-2.623c-4.225-1.748-7.939-4.174-11.145-7.284
			c-3.204-3.107-5.731-6.797-7.575-11.072c-1.846-4.272-2.768-8.934-2.768-13.985c0-4.855,0.896-9.396,2.695-13.621
			c1.796-4.225,4.272-7.915,7.43-11.072c3.154-3.155,6.895-5.681,11.217-7.575c4.32-1.894,9.007-2.937,14.059-3.132
			c4.563,0,8.959,0.924,13.184,2.768c4.225,1.846,7.939,4.371,11.145,7.575c3.205,3.205,5.777,6.92,7.721,11.145
			c1.942,4.225,2.914,8.766,2.914,13.621c0,1.457-0.487,2.575-1.457,3.351c-0.972,0.779-1.991,1.166-3.059,1.166H422.68z
			 M474.251,103.497c-0.583-3.009-1.653-5.827-3.205-8.449c-1.555-2.622-3.474-4.88-5.755-6.774
			c-2.283-1.894-4.857-3.398-7.721-4.516c-2.866-1.116-5.9-1.675-9.105-1.675s-6.241,0.56-9.104,1.675
			c-2.866,1.118-5.44,2.622-7.722,4.516c-2.282,1.894-4.177,4.152-5.681,6.774c-1.507,2.622-2.55,5.44-3.133,8.449H474.251z"/>
		<path fill="#1B3764" d="M488.236,91.115c0-3.398,0.678-6.265,2.039-8.595c1.359-2.331,3.155-4.225,5.391-5.682
			c2.232-1.457,4.757-2.5,7.575-3.132c2.815-0.63,5.631-0.947,8.449-0.947c2.331,0,4.808,0.269,7.43,0.801
			c2.622,0.535,5.049,1.336,7.284,2.404c2.232,1.07,4.079,2.381,5.536,3.933c1.456,1.555,2.185,3.401,2.185,5.536
			c0,1.07-0.364,2.112-1.093,3.132c-0.729,1.02-1.919,1.53-3.568,1.53c-1.847,0-3.256-1.067-4.226-3.205
			c-0.874-1.844-2.574-3.228-5.099-4.152c-2.526-0.922-5.342-1.384-8.449-1.384c-1.652,0-3.328,0.123-5.026,0.364
			c-1.7,0.244-3.229,0.729-4.589,1.457c-1.36,0.729-2.501,1.726-3.423,2.987c-0.925,1.263-1.384,2.914-1.384,4.953
			c0,1.457,0.459,2.72,1.384,3.788c0.922,1.07,2.087,1.966,3.496,2.695c1.406,0.729,2.961,1.289,4.662,1.675
			c1.697,0.389,3.325,0.729,4.88,1.02c3.592,0.583,6.968,1.434,10.125,2.549c3.154,1.118,5.923,2.549,8.304,4.297
			c2.379,1.748,4.272,3.838,5.682,6.264c1.406,2.429,2.112,5.245,2.112,8.45s-0.681,6.144-2.04,8.813
			c-1.361,2.672-3.229,4.953-5.608,6.847c-2.381,1.894-5.172,3.351-8.377,4.37c-3.204,1.02-6.605,1.53-10.197,1.53
			c-6.118,0-11.486-1.407-16.098-4.225c-4.614-2.816-7.698-6.701-9.251-11.654c-0.098-0.292-0.146-0.729-0.146-1.312
			c0-1.261,0.412-2.378,1.238-3.351c0.824-0.97,1.917-1.457,3.278-1.457c1.067,0,2.015,0.316,2.841,0.947
			c0.823,0.633,1.479,1.482,1.966,2.549c1.262,3.109,3.424,5.463,6.483,7.065s6.287,2.404,9.688,2.404
			c4.758,0,8.813-1.092,12.164-3.278c3.351-2.185,5.026-5.267,5.026-9.25c0-3.205-1.652-5.923-4.953-8.158
			c-3.303-2.233-7.382-3.69-12.237-4.37c-6.992-0.97-12.651-2.889-16.972-5.754C490.396,100.707,488.236,96.555,488.236,91.115z"/>
		<path fill="#1B3764" d="M548.837,54.986c0-1.261,0.438-2.354,1.312-3.278c0.874-0.922,1.941-1.384,3.205-1.384h23.745
			c3.497,0,6.749,0.655,9.761,1.967c3.01,1.311,5.656,3.109,7.939,5.39c2.281,2.283,4.079,4.93,5.391,7.939
			c1.311,3.011,1.967,6.216,1.967,9.615c0,3.401-0.656,6.628-1.967,9.688c-1.312,3.059-3.109,5.707-5.391,7.939
			c-2.283,2.235-4.93,4.006-7.939,5.317c-3.012,1.311-6.264,1.966-9.761,1.966h-19.229v38.751c0,1.263-0.437,2.331-1.311,3.205
			c-0.875,0.874-1.944,1.311-3.205,1.311c-1.264,0-2.331-0.437-3.205-1.311s-1.312-1.942-1.312-3.205V54.986z M557.869,59.356
			v31.758h19.229c2.136,0,4.175-0.412,6.119-1.238c1.941-0.824,3.642-1.967,5.099-3.424c1.457-1.457,2.597-3.132,3.424-5.026
			c0.823-1.894,1.238-3.956,1.238-6.191c0-2.135-0.415-4.175-1.238-6.119c-0.827-1.941-1.967-3.642-3.424-5.099
			c-1.457-1.457-3.157-2.597-5.099-3.423c-1.944-0.824-3.983-1.238-6.119-1.238H557.869z"/>
		<path fill="#1B3764" d="M642.8,96.65c-2.914-0.874-5.998-1.967-9.251-3.278c-3.255-1.311-6.217-2.889-8.887-4.734
			c-2.672-1.844-4.88-4.006-6.628-6.483s-2.622-5.317-2.622-8.522c0-3.689,0.823-6.967,2.477-9.833
			c1.65-2.863,3.787-5.292,6.409-7.284c2.623-1.99,5.559-3.497,8.814-4.516c3.252-1.02,6.482-1.53,9.688-1.53
			c2.135,0,4.345,0.171,6.628,0.51c2.281,0.342,4.539,0.947,6.774,1.821c2.233,0.874,4.394,2.089,6.482,3.642
			c2.088,1.555,4.007,3.546,5.755,5.973c0.583,0.874,0.874,1.894,0.874,3.059c0,1.361-0.414,2.502-1.238,3.424
			c-0.826,0.924-1.919,1.384-3.278,1.384c-1.748,0-3.109-0.776-4.079-2.331c-1.165-1.941-2.526-3.471-4.078-4.589
			c-1.555-1.115-3.133-1.966-4.735-2.549c-1.603-0.583-3.205-0.947-4.807-1.092c-1.603-0.146-3.037-0.219-4.298-0.219
			c-1.944,0-3.983,0.244-6.119,0.729c-2.137,0.487-4.104,1.263-5.899,2.331c-1.799,1.07-3.278,2.502-4.443,4.298
			c-1.166,1.798-1.748,4.056-1.748,6.774c0,1.944,0.849,3.692,2.549,5.245c1.698,1.555,3.763,2.914,6.191,4.079
			c2.427,1.166,4.953,2.185,7.576,3.059c2.622,0.874,4.854,1.653,6.701,2.331c3.689,1.361,7.04,2.818,10.052,4.37
			c3.009,1.555,5.608,3.401,7.794,5.536c2.185,2.137,3.883,4.614,5.099,7.43c1.213,2.818,1.821,6.168,1.821,10.052
			c0,3.886-0.827,7.527-2.477,10.926c-1.653,3.401-3.861,6.337-6.629,8.814s-5.95,4.42-9.542,5.827
			c-3.594,1.409-7.334,2.112-11.218,2.112c-2.72,0-5.561-0.364-8.521-1.093c-2.964-0.728-5.779-1.748-8.45-3.059
			c-2.672-1.311-5.099-2.889-7.283-4.734c-2.186-1.844-3.861-3.883-5.026-6.119c-0.487-0.776-0.729-1.553-0.729-2.331
			c0-1.166,0.46-2.233,1.384-3.205c0.922-0.97,2.062-1.457,3.424-1.457c1.844,0,3.205,0.778,4.079,2.331
			c0.874,1.749,2.16,3.278,3.86,4.589c1.698,1.311,3.569,2.429,5.608,3.351c2.04,0.924,4.103,1.603,6.191,2.04
			c2.088,0.437,3.956,0.655,5.609,0.655c2.622,0,5.194-0.485,7.721-1.457c2.524-0.97,4.734-2.281,6.628-3.934
			c1.895-1.65,3.424-3.617,4.59-5.9c1.165-2.281,1.748-4.735,1.748-7.357s-0.51-4.903-1.53-6.847
			c-1.02-1.941-2.453-3.642-4.297-5.099c-1.847-1.457-4.031-2.768-6.556-3.933C648.431,98.69,645.713,97.622,642.8,96.65z"/>
	</g>
	<g>
		<path fill="#36BBD6" d="M254.482,175.926c0-1.538,0.293-2.975,0.88-4.31c0.586-1.335,1.396-2.488,2.428-3.459
			c1.032-0.971,2.225-1.74,3.582-2.307c1.355-0.566,2.802-0.85,4.34-0.85c0.283,0,0.839,0.051,1.669,0.152
			c0.829,0.102,1.75,0.375,2.762,0.819c1.011,0.446,2.013,1.123,3.004,2.034c0.991,0.91,1.811,2.176,2.458,3.793
			c0.122,0.325,0.182,0.607,0.182,0.85c0,0.647-0.223,1.194-0.667,1.639c-0.446,0.446-0.992,0.668-1.639,0.668
			c-0.485,0-0.921-0.131-1.305-0.395c-0.385-0.263-0.658-0.617-0.819-1.062c-0.567-1.214-1.376-2.164-2.428-2.853
			c-1.053-0.688-2.206-1.032-3.46-1.032c-0.891,0-1.721,0.162-2.489,0.486c-0.769,0.324-1.447,0.779-2.034,1.366
			c-0.587,0.587-1.042,1.265-1.366,2.033c-0.324,0.769-0.485,1.578-0.485,2.428v8.741c0,0.85,0.171,1.66,0.516,2.428
			c0.343,0.77,0.798,1.447,1.366,2.034c0.566,0.587,1.244,1.042,2.033,1.366c0.789,0.324,1.608,0.485,2.458,0.485
			c1.294,0,2.468-0.343,3.521-1.032c1.052-0.688,1.841-1.639,2.367-2.853c0.202-0.445,0.486-0.798,0.85-1.062
			c0.364-0.263,0.789-0.395,1.274-0.395c0.647,0,1.193,0.233,1.639,0.698c0.445,0.466,0.667,1.002,0.667,1.609
			c0,0.284-0.061,0.567-0.182,0.85c-0.81,1.781-1.781,3.137-2.914,4.067c-1.133,0.932-2.236,1.599-3.308,2.003
			c-1.073,0.405-1.983,0.627-2.731,0.668c-0.75,0.04-1.144,0.061-1.184,0.061c-1.498,0-2.914-0.283-4.249-0.85
			c-1.335-0.566-2.499-1.345-3.49-2.337c-0.992-0.991-1.781-2.155-2.367-3.49c-0.587-1.335-0.88-2.751-0.88-4.249V175.926z"/>
		<path fill="#36BBD6" d="M279.915,167.549c0-0.646,0.222-1.193,0.668-1.639c0.444-0.445,0.991-0.667,1.639-0.667
			c0.525,0,1.002,0.172,1.427,0.516c0.425,0.344,0.698,0.8,0.819,1.366c1.901-1.416,4.128-2.125,6.677-2.125
			c1.416,0.122,2.539,0.304,3.369,0.546c0.829,0.243,1.588,0.598,2.276,1.062c0.688,0.465,1.031,1.123,1.031,1.973
			c0,0.688-0.223,1.244-0.667,1.669c-0.446,0.425-0.992,0.638-1.64,0.638c-0.526,0-0.991-0.142-1.396-0.425
			c-1.012-0.566-2.085-0.85-3.217-0.85c-0.891,0-1.711,0.162-2.459,0.486c-0.749,0.324-1.417,0.759-2.003,1.305
			c-0.587,0.546-1.042,1.184-1.366,1.912s-0.506,1.518-0.546,2.367v17.36c0,0.648-0.223,1.194-0.668,1.639
			c-0.445,0.445-0.992,0.667-1.639,0.667c-0.606,0-1.144-0.222-1.608-0.667c-0.466-0.445-0.698-0.991-0.698-1.639v-17.542V167.549z"
			/>
		<path fill="#36BBD6" d="M298.733,175.926c0-1.497,0.282-2.914,0.85-4.249c0.566-1.335,1.355-2.499,2.367-3.49
			c1.011-0.991,2.175-1.77,3.49-2.337c1.314-0.566,2.741-0.85,4.279-0.85c1.496,0,2.913,0.284,4.249,0.85
			c1.335,0.567,2.498,1.346,3.49,2.337c0.991,0.992,1.78,2.155,2.367,3.49c0.586,1.335,0.88,2.752,0.88,4.249v4.37
			c0,0.648-0.223,1.194-0.667,1.639c-0.446,0.446-0.992,0.667-1.64,0.667h-15.054v2.064c0,0.85,0.172,1.66,0.517,2.428
			c0.343,0.77,0.799,1.447,1.365,2.034c0.566,0.587,1.245,1.042,2.034,1.366c0.789,0.324,1.608,0.485,2.458,0.485
			c1.295,0,2.458-0.333,3.49-1.001c1.032-0.667,1.811-1.568,2.337-2.701l0.061-0.182c0.161-0.445,0.435-0.798,0.819-1.062
			c0.385-0.263,0.819-0.395,1.306-0.395c0.646,0,1.192,0.233,1.639,0.698c0.444,0.466,0.668,1.002,0.668,1.609
			c0,0.284-0.062,0.567-0.183,0.85l-0.121,0.243c-0.85,1.942-2.165,3.521-3.945,4.735c-1.781,1.214-3.805,1.821-6.07,1.821
			c-1.498,0-2.914-0.283-4.249-0.85c-1.336-0.566-2.499-1.345-3.49-2.337c-0.992-0.991-1.781-2.155-2.367-3.49
			c-0.587-1.335-0.88-2.751-0.88-4.249V175.926z M303.346,177.99h12.747v-2.063c0-0.85-0.172-1.659-0.516-2.428
			c-0.345-0.768-0.8-1.446-1.365-2.033c-0.567-0.586-1.245-1.042-2.034-1.366c-0.789-0.324-1.608-0.486-2.458-0.486
			c-0.891,0-1.721,0.162-2.489,0.486c-0.769,0.324-1.447,0.779-2.033,1.366c-0.587,0.587-1.042,1.265-1.365,2.033
			c-0.324,0.769-0.486,1.578-0.486,2.428V177.99z"/>
		<path fill="#36BBD6" d="M324.834,175.926c0-1.497,0.282-2.914,0.85-4.249c0.566-1.335,1.355-2.499,2.367-3.49
			c1.011-0.991,2.175-1.77,3.49-2.337c1.314-0.566,2.741-0.85,4.279-0.85c1.496,0,2.913,0.284,4.249,0.85
			c1.335,0.567,2.498,1.346,3.49,2.337c0.991,0.992,1.78,2.155,2.367,3.49c0.586,1.335,0.88,2.752,0.88,4.249v17.117
			c0,0.648-0.233,1.194-0.698,1.639c-0.465,0.445-1.001,0.667-1.608,0.667c-0.566,0-1.062-0.172-1.487-0.516
			c-0.425-0.343-0.678-0.778-0.758-1.305c-1.862,1.376-4.007,2.063-6.435,2.063c-1.498,0-2.914-0.283-4.249-0.85
			c-1.336-0.566-2.499-1.345-3.49-2.337c-0.992-0.991-1.781-2.155-2.367-3.49c-0.587-1.335-0.88-2.751-0.88-4.249V175.926z
			 M329.446,184.667c0,0.85,0.172,1.66,0.517,2.428c0.343,0.77,0.799,1.447,1.365,2.034c0.566,0.587,1.245,1.042,2.034,1.366
			c0.789,0.324,1.608,0.485,2.458,0.485s1.659-0.151,2.428-0.455c0.769-0.303,1.437-0.729,2.003-1.275
			c0.566-0.546,1.021-1.184,1.366-1.912c0.343-0.729,0.536-1.518,0.576-2.368v-9.044c0-0.85-0.172-1.659-0.516-2.428
			c-0.345-0.768-0.8-1.446-1.365-2.033c-0.567-0.586-1.245-1.042-2.034-1.366c-0.789-0.324-1.608-0.486-2.458-0.486
			c-0.891,0-1.721,0.162-2.489,0.486c-0.769,0.324-1.447,0.779-2.033,1.366c-0.587,0.587-1.042,1.265-1.365,2.033
			c-0.324,0.769-0.486,1.578-0.486,2.428V184.667z"/>
		<path fill="#36BBD6" d="M351.298,157.534c0-0.647,0.222-1.193,0.668-1.639c0.444-0.445,0.991-0.667,1.639-0.667
			c0.607,0,1.143,0.223,1.608,0.667c0.465,0.446,0.698,0.992,0.698,1.639v7.709h11.775c0.647,0,1.193,0.223,1.64,0.667
			c0.444,0.446,0.667,0.992,0.667,1.639c0,0.607-0.223,1.144-0.667,1.609c-0.446,0.465-0.992,0.698-1.64,0.698h-11.775v14.811
			c0,0.85,0.172,1.66,0.516,2.428c0.344,0.77,0.799,1.447,1.366,2.034c0.566,0.587,1.244,1.042,2.033,1.366
			c0.789,0.324,1.608,0.485,2.459,0.485c1.294,0,2.468-0.343,3.521-1.032c1.052-0.688,1.841-1.639,2.367-2.853
			c0.202-0.445,0.485-0.798,0.85-1.062c0.364-0.263,0.789-0.395,1.274-0.395c0.647,0,1.193,0.233,1.639,0.698
			c0.445,0.466,0.668,1.002,0.668,1.609c0,0.284-0.061,0.567-0.182,0.85c-0.811,1.781-1.781,3.137-2.914,4.067
			c-1.133,0.932-2.236,1.599-3.308,2.003c-1.073,0.405-1.983,0.627-2.731,0.668c-0.75,0.04-1.145,0.061-1.184,0.061
			c-1.498,0-2.914-0.283-4.249-0.85c-1.336-0.566-2.5-1.345-3.49-2.337c-0.992-0.991-1.781-2.155-2.368-3.49s-0.88-2.751-0.88-4.249
			V157.534z"/>
		<path fill="#36BBD6" d="M374.85,175.926c0-1.497,0.282-2.914,0.85-4.249c0.566-1.335,1.355-2.499,2.367-3.49
			c1.011-0.991,2.175-1.77,3.49-2.337c1.314-0.566,2.741-0.85,4.279-0.85c1.496,0,2.913,0.284,4.249,0.85
			c1.335,0.567,2.498,1.346,3.49,2.337c0.991,0.992,1.78,2.155,2.367,3.49c0.586,1.335,0.88,2.752,0.88,4.249v4.37
			c0,0.648-0.223,1.194-0.667,1.639c-0.446,0.446-0.992,0.667-1.64,0.667h-15.054v2.064c0,0.85,0.172,1.66,0.517,2.428
			c0.343,0.77,0.799,1.447,1.365,2.034c0.566,0.587,1.245,1.042,2.034,1.366c0.789,0.324,1.608,0.485,2.458,0.485
			c1.295,0,2.458-0.333,3.49-1.001c1.032-0.667,1.811-1.568,2.337-2.701l0.061-0.182c0.161-0.445,0.435-0.798,0.819-1.062
			c0.385-0.263,0.819-0.395,1.306-0.395c0.646,0,1.192,0.233,1.639,0.698c0.444,0.466,0.668,1.002,0.668,1.609
			c0,0.284-0.062,0.567-0.183,0.85l-0.121,0.243c-0.85,1.942-2.165,3.521-3.945,4.735c-1.781,1.214-3.805,1.821-6.07,1.821
			c-1.498,0-2.914-0.283-4.249-0.85c-1.336-0.566-2.499-1.345-3.49-2.337c-0.992-0.991-1.781-2.155-2.367-3.49
			c-0.587-1.335-0.88-2.751-0.88-4.249V175.926z M379.462,177.99h12.747v-2.063c0-0.85-0.172-1.659-0.516-2.428
			c-0.345-0.768-0.8-1.446-1.365-2.033c-0.567-0.586-1.245-1.042-2.034-1.366c-0.789-0.324-1.608-0.486-2.458-0.486
			c-0.891,0-1.721,0.162-2.489,0.486c-0.769,0.324-1.447,0.779-2.033,1.366c-0.587,0.587-1.042,1.265-1.365,2.033
			c-0.324,0.769-0.486,1.578-0.486,2.428V177.99z"/>
		<path fill="#36BBD6" d="M417.036,175.926c0-1.497,0.282-2.914,0.85-4.249c0.566-1.335,1.355-2.499,2.367-3.49
			c1.011-0.991,2.175-1.77,3.49-2.337c1.314-0.566,2.741-0.85,4.279-0.85c1.496,0,2.913,0.284,4.249,0.85
			c1.335,0.567,2.498,1.346,3.49,2.337c0.991,0.992,1.78,2.155,2.367,3.49c0.586,1.335,0.88,2.752,0.88,4.249v8.741
			c0,1.498-0.283,2.914-0.85,4.249c-0.567,1.335-1.356,2.499-2.367,3.49c-1.012,0.992-2.186,1.771-3.521,2.337
			c-1.336,0.567-2.753,0.85-4.249,0.85c-1.498,0-2.914-0.283-4.249-0.85c-1.336-0.566-2.499-1.345-3.49-2.337
			c-0.992-0.991-1.781-2.155-2.367-3.49c-0.587-1.335-0.88-2.751-0.88-4.249V175.926z M421.648,184.667
			c0,0.85,0.172,1.66,0.517,2.428c0.343,0.77,0.799,1.447,1.365,2.034c0.566,0.587,1.245,1.042,2.034,1.366
			c0.789,0.324,1.608,0.485,2.458,0.485c0.89,0,1.72-0.161,2.488-0.485c0.769-0.323,1.446-0.779,2.034-1.366
			c0.586-0.586,1.041-1.264,1.365-2.034c0.323-0.768,0.485-1.578,0.485-2.428v-8.741c0-0.85-0.172-1.659-0.516-2.428
			c-0.345-0.768-0.8-1.446-1.365-2.033c-0.567-0.586-1.245-1.042-2.034-1.366c-0.789-0.324-1.608-0.486-2.458-0.486
			c-0.891,0-1.721,0.162-2.489,0.486c-0.769,0.324-1.447,0.779-2.033,1.366c-0.587,0.587-1.042,1.265-1.365,2.033
			c-0.324,0.769-0.486,1.578-0.486,2.428V184.667z"/>
		<path fill="#36BBD6" d="M443.318,175.926c0-1.497,0.282-2.914,0.85-4.249c0.566-1.335,1.355-2.499,2.367-3.49
			c1.012-0.991,2.175-1.77,3.49-2.337c1.314-0.566,2.741-0.85,4.279-0.85c1.497,0,2.914,0.284,4.249,0.85
			c1.336,0.567,2.498,1.346,3.49,2.337c0.991,0.992,1.78,2.155,2.367,3.49s0.881,2.752,0.881,4.249v8.741
			c0,1.498-0.284,2.914-0.85,4.249c-0.567,1.335-1.356,2.499-2.368,3.49c-1.012,0.992-2.185,1.771-3.521,2.337
			c-1.335,0.567-2.752,0.85-4.249,0.85c-1.174,0-2.307-0.182-3.398-0.546c-1.093-0.364-2.085-0.87-2.975-1.517v10.197
			c0,0.647-0.233,1.193-0.698,1.639c-0.466,0.445-1.001,0.667-1.608,0.667c-0.647,0-1.194-0.223-1.639-0.667
			c-0.446-0.446-0.668-0.992-0.668-1.639v-18.574V175.926z M447.932,184.667c0,0.85,0.172,1.66,0.516,2.428
			c0.344,0.77,0.799,1.447,1.366,2.034c0.566,0.587,1.244,1.042,2.033,1.366c0.789,0.324,1.608,0.485,2.458,0.485
			c0.89,0,1.72-0.161,2.489-0.485c0.768-0.323,1.446-0.779,2.033-1.366c0.586-0.586,1.041-1.264,1.366-2.034
			c0.323-0.768,0.485-1.578,0.485-2.428v-8.741c0-0.85-0.173-1.659-0.516-2.428c-0.345-0.768-0.8-1.446-1.366-2.033
			c-0.567-0.586-1.244-1.042-2.033-1.366c-0.789-0.324-1.608-0.486-2.459-0.486c-0.891,0-1.72,0.162-2.488,0.486
			c-0.77,0.324-1.447,0.779-2.033,1.366c-0.587,0.587-1.043,1.265-1.366,2.033c-0.324,0.769-0.485,1.578-0.485,2.428V184.667z"/>
		<path fill="#36BBD6" d="M469.602,175.926c0-1.497,0.282-2.914,0.85-4.249c0.566-1.335,1.355-2.499,2.367-3.49
			c1.012-0.991,2.175-1.77,3.49-2.337c1.314-0.566,2.741-0.85,4.279-0.85c1.497,0,2.914,0.284,4.249,0.85
			c1.336,0.567,2.498,1.346,3.49,2.337c0.991,0.992,1.78,2.155,2.367,3.49s0.881,2.752,0.881,4.249v8.741
			c0,1.498-0.284,2.914-0.85,4.249c-0.567,1.335-1.356,2.499-2.368,3.49c-1.012,0.992-2.185,1.771-3.521,2.337
			c-1.335,0.567-2.752,0.85-4.249,0.85c-1.174,0-2.307-0.182-3.398-0.546c-1.093-0.364-2.085-0.87-2.975-1.517v10.197
			c0,0.647-0.233,1.193-0.698,1.639c-0.466,0.445-1.001,0.667-1.608,0.667c-0.647,0-1.194-0.223-1.639-0.667
			c-0.446-0.446-0.668-0.992-0.668-1.639v-18.574V175.926z M474.215,184.667c0,0.85,0.172,1.66,0.516,2.428
			c0.344,0.77,0.799,1.447,1.366,2.034c0.566,0.587,1.244,1.042,2.033,1.366c0.789,0.324,1.608,0.485,2.458,0.485
			c0.89,0,1.72-0.161,2.489-0.485c0.768-0.323,1.446-0.779,2.033-1.366c0.586-0.586,1.041-1.264,1.366-2.034
			c0.323-0.768,0.485-1.578,0.485-2.428v-8.741c0-0.85-0.173-1.659-0.516-2.428c-0.345-0.768-0.8-1.446-1.366-2.033
			c-0.567-0.586-1.244-1.042-2.033-1.366c-0.789-0.324-1.608-0.486-2.459-0.486c-0.891,0-1.72,0.162-2.488,0.486
			c-0.77,0.324-1.447,0.779-2.033,1.366c-0.587,0.587-1.043,1.265-1.366,2.033c-0.324,0.769-0.485,1.578-0.485,2.428V184.667z"/>
		<path fill="#36BBD6" d="M495.702,175.926c0-1.497,0.282-2.914,0.85-4.249c0.566-1.335,1.355-2.499,2.367-3.49
			c1.011-0.991,2.175-1.77,3.49-2.337c1.314-0.566,2.741-0.85,4.279-0.85c1.496,0,2.913,0.284,4.249,0.85
			c1.335,0.567,2.498,1.346,3.49,2.337c0.991,0.992,1.78,2.155,2.367,3.49c0.586,1.335,0.88,2.752,0.88,4.249v8.741
			c0,1.498-0.283,2.914-0.85,4.249c-0.567,1.335-1.356,2.499-2.367,3.49c-1.012,0.992-2.186,1.771-3.521,2.337
			c-1.336,0.567-2.753,0.85-4.249,0.85c-1.498,0-2.914-0.283-4.249-0.85c-1.336-0.566-2.499-1.345-3.49-2.337
			c-0.992-0.991-1.781-2.155-2.367-3.49c-0.587-1.335-0.88-2.751-0.88-4.249V175.926z M500.314,184.667
			c0,0.85,0.172,1.66,0.517,2.428c0.343,0.77,0.799,1.447,1.365,2.034c0.566,0.587,1.245,1.042,2.034,1.366
			c0.789,0.324,1.608,0.485,2.458,0.485c0.89,0,1.72-0.161,2.488-0.485c0.769-0.323,1.446-0.779,2.034-1.366
			c0.586-0.586,1.041-1.264,1.365-2.034c0.323-0.768,0.485-1.578,0.485-2.428v-8.741c0-0.85-0.172-1.659-0.516-2.428
			c-0.345-0.768-0.8-1.446-1.365-2.033c-0.567-0.586-1.245-1.042-2.034-1.366c-0.789-0.324-1.608-0.486-2.458-0.486
			c-0.891,0-1.721,0.162-2.489,0.486c-0.769,0.324-1.447,0.779-2.033,1.366c-0.587,0.587-1.042,1.265-1.365,2.033
			c-0.324,0.769-0.486,1.578-0.486,2.428V184.667z"/>
		<path fill="#36BBD6" d="M522.045,167.549c0-0.646,0.222-1.193,0.668-1.639c0.444-0.445,0.991-0.667,1.639-0.667
			c0.525,0,1.002,0.172,1.427,0.516c0.425,0.344,0.698,0.8,0.819,1.366c1.901-1.416,4.128-2.125,6.677-2.125
			c1.416,0.122,2.539,0.304,3.369,0.546c0.829,0.243,1.588,0.598,2.276,1.062c0.688,0.465,1.031,1.123,1.031,1.973
			c0,0.688-0.223,1.244-0.667,1.669c-0.446,0.425-0.992,0.638-1.64,0.638c-0.526,0-0.991-0.142-1.396-0.425
			c-1.012-0.566-2.085-0.85-3.217-0.85c-0.891,0-1.711,0.162-2.459,0.486c-0.749,0.324-1.417,0.759-2.003,1.305
			c-0.587,0.546-1.042,1.184-1.366,1.912s-0.506,1.518-0.546,2.367v17.36c0,0.648-0.223,1.194-0.668,1.639
			c-0.445,0.445-0.992,0.667-1.639,0.667c-0.606,0-1.144-0.222-1.608-0.667c-0.466-0.445-0.698-0.991-0.698-1.639v-17.542V167.549z"
			/>
		<path fill="#36BBD6" d="M542.319,157.534c0-0.647,0.222-1.193,0.668-1.639c0.444-0.445,0.991-0.667,1.639-0.667
			c0.607,0,1.143,0.223,1.608,0.667c0.465,0.446,0.698,0.992,0.698,1.639v7.709h11.775c0.647,0,1.193,0.223,1.64,0.667
			c0.444,0.446,0.667,0.992,0.667,1.639c0,0.607-0.223,1.144-0.667,1.609c-0.446,0.465-0.992,0.698-1.64,0.698h-11.775v14.811
			c0,0.85,0.172,1.66,0.516,2.428c0.344,0.77,0.799,1.447,1.366,2.034c0.566,0.587,1.244,1.042,2.033,1.366
			c0.789,0.324,1.608,0.485,2.459,0.485c1.294,0,2.468-0.343,3.521-1.032c1.052-0.688,1.841-1.639,2.367-2.853
			c0.202-0.445,0.485-0.798,0.85-1.062c0.364-0.263,0.789-0.395,1.274-0.395c0.647,0,1.193,0.233,1.639,0.698
			c0.445,0.466,0.668,1.002,0.668,1.609c0,0.284-0.061,0.567-0.182,0.85c-0.811,1.781-1.781,3.137-2.914,4.067
			c-1.133,0.932-2.236,1.599-3.308,2.003c-1.073,0.405-1.983,0.627-2.731,0.668c-0.75,0.04-1.145,0.061-1.184,0.061
			c-1.498,0-2.914-0.283-4.249-0.85c-1.336-0.566-2.5-1.345-3.49-2.337c-0.992-0.991-1.781-2.155-2.368-3.49s-0.88-2.751-0.88-4.249
			V157.534z"/>
		<path fill="#36BBD6" d="M566.053,167.549c0-0.646,0.222-1.193,0.668-1.639c0.444-0.445,0.991-0.667,1.639-0.667
			c0.607,0,1.143,0.223,1.608,0.667c0.465,0.446,0.698,0.992,0.698,1.639v17.118c0,0.85,0.161,1.66,0.485,2.428
			c0.323,0.77,0.779,1.447,1.366,2.034c0.586,0.587,1.264,1.042,2.033,1.366c0.769,0.324,1.598,0.485,2.488,0.485
			c0.851,0,1.67-0.161,2.459-0.485c0.789-0.323,1.466-0.779,2.033-1.366c0.566-0.586,1.021-1.264,1.366-2.034
			c0.343-0.768,0.516-1.578,0.516-2.428v-17.118c0-0.646,0.222-1.193,0.668-1.639c0.444-0.445,0.99-0.667,1.639-0.667
			c0.606,0,1.143,0.223,1.608,0.667c0.465,0.446,0.698,0.992,0.698,1.639v17.118c0,1.498-0.294,2.914-0.881,4.249
			s-1.376,2.499-2.367,3.49c-0.992,0.992-2.154,1.771-3.49,2.337c-1.335,0.567-2.752,0.85-4.249,0.85
			c-1.538,0-2.965-0.283-4.279-0.85c-1.315-0.566-2.479-1.345-3.49-2.337c-1.012-0.991-1.801-2.155-2.367-3.49
			c-0.567-1.335-0.85-2.751-0.85-4.249V167.549z"/>
		<path fill="#36BBD6" d="M592.518,175.926c0-1.497,0.282-2.914,0.85-4.249c0.566-1.335,1.355-2.499,2.367-3.49
			c1.012-0.991,2.175-1.77,3.49-2.337c1.314-0.566,2.741-0.85,4.279-0.85c1.497,0,2.914,0.284,4.249,0.85
			c1.336,0.567,2.498,1.346,3.49,2.337c0.991,0.992,1.78,2.155,2.367,3.49s0.881,2.752,0.881,4.249v17.117
			c0,0.648-0.233,1.194-0.698,1.639c-0.466,0.445-1.002,0.667-1.608,0.667c-0.648,0-1.194-0.222-1.639-0.667
			c-0.446-0.445-0.668-0.991-0.668-1.639v-17.117c0-0.85-0.173-1.659-0.516-2.428c-0.345-0.768-0.8-1.446-1.366-2.033
			c-0.567-0.586-1.244-1.042-2.033-1.366c-0.789-0.324-1.608-0.486-2.459-0.486c-0.891,0-1.72,0.162-2.488,0.486
			c-0.77,0.324-1.447,0.779-2.033,1.366c-0.587,0.587-1.043,1.265-1.366,2.033c-0.324,0.769-0.485,1.578-0.485,2.428v17.117
			c0,0.648-0.233,1.194-0.698,1.639c-0.466,0.445-1.001,0.667-1.608,0.667c-0.647,0-1.194-0.222-1.639-0.667
			c-0.446-0.445-0.668-0.991-0.668-1.639V175.926z"/>
		<path fill="#36BBD6" d="M619.042,156.866c0-0.646,0.222-1.193,0.668-1.639c0.444-0.445,0.991-0.668,1.639-0.668
			c0.607,0,1.143,0.223,1.608,0.668c0.465,0.446,0.698,0.992,0.698,1.639v1.76c0,0.648-0.223,1.194-0.668,1.639
			c-0.445,0.446-0.992,0.667-1.639,0.667c-0.606,0-1.144-0.222-1.608-0.667c-0.466-0.445-0.698-0.991-0.698-1.639V156.866z
			 M619.042,167.549c0-0.646,0.222-1.193,0.668-1.639c0.444-0.445,0.991-0.667,1.639-0.667c0.607,0,1.143,0.223,1.608,0.667
			c0.465,0.446,0.698,0.992,0.698,1.639v25.494c0,0.648-0.223,1.194-0.668,1.639c-0.445,0.445-0.992,0.667-1.639,0.667
			c-0.606,0-1.144-0.222-1.608-0.667c-0.466-0.445-0.698-0.991-0.698-1.639V167.549z"/>
		<path fill="#36BBD6" d="M627.661,157.534c0-0.647,0.222-1.193,0.668-1.639c0.444-0.445,0.991-0.667,1.639-0.667
			c0.607,0,1.143,0.223,1.608,0.667c0.465,0.446,0.698,0.992,0.698,1.639v7.709h11.775c0.647,0,1.193,0.223,1.64,0.667
			c0.444,0.446,0.667,0.992,0.667,1.639c0,0.607-0.223,1.144-0.667,1.609c-0.446,0.465-0.992,0.698-1.64,0.698h-11.775v14.811
			c0,0.85,0.172,1.66,0.516,2.428c0.344,0.77,0.799,1.447,1.366,2.034c0.566,0.587,1.244,1.042,2.033,1.366
			c0.789,0.324,1.608,0.485,2.459,0.485c1.294,0,2.468-0.343,3.521-1.032c1.052-0.688,1.841-1.639,2.367-2.853
			c0.202-0.445,0.485-0.798,0.85-1.062c0.364-0.263,0.789-0.395,1.274-0.395c0.647,0,1.193,0.233,1.639,0.698
			c0.445,0.466,0.668,1.002,0.668,1.609c0,0.284-0.061,0.567-0.182,0.85c-0.811,1.781-1.781,3.137-2.914,4.067
			c-1.133,0.932-2.236,1.599-3.308,2.003c-1.073,0.405-1.983,0.627-2.731,0.668c-0.75,0.04-1.145,0.061-1.184,0.061
			c-1.498,0-2.914-0.283-4.249-0.85c-1.336-0.566-2.5-1.345-3.49-2.337c-0.992-0.991-1.781-2.155-2.368-3.49s-0.88-2.751-0.88-4.249
			V157.534z"/>
		<path fill="#36BBD6" d="M651.396,167.549c0-0.646,0.222-1.193,0.668-1.639c0.444-0.445,0.991-0.667,1.639-0.667
			c0.607,0,1.143,0.223,1.608,0.667c0.465,0.446,0.698,0.992,0.698,1.639v17.118c0,0.85,0.161,1.66,0.485,2.428
			c0.323,0.77,0.779,1.447,1.366,2.034c0.586,0.587,1.264,1.042,2.033,1.366c0.769,0.324,1.598,0.485,2.488,0.485
			c0.851,0,1.67-0.161,2.459-0.485c0.789-0.323,1.466-0.779,2.033-1.366c0.566-0.586,1.021-1.264,1.366-2.034
			c0.343-0.768,0.516-1.578,0.516-2.428v-17.118c0-0.646,0.222-1.193,0.668-1.639c0.444-0.445,0.99-0.667,1.639-0.667
			c0.606,0,1.143,0.223,1.608,0.667c0.465,0.446,0.698,0.992,0.698,1.639v17.118c0,1.295-0.223,2.54-0.668,3.733
			c-0.445,1.194-1.053,2.256-1.821,3.187c-0.769,0.931-1.689,1.729-2.762,2.397c-1.072,0.667-2.216,1.123-3.43,1.366v8.376
			c0,0.647-0.223,1.193-0.667,1.639c-0.446,0.445-0.992,0.667-1.64,0.667c-0.606,0-1.144-0.223-1.608-0.667
			c-0.466-0.446-0.698-0.992-0.698-1.639v-8.376c-1.254-0.243-2.407-0.698-3.46-1.366c-1.053-0.668-1.963-1.466-2.731-2.397
			c-0.769-0.931-1.376-1.993-1.82-3.187c-0.446-1.193-0.668-2.438-0.668-3.733V167.549z"/>
	</g>
</g>
<g id="Layer_3" display="none">
	<path display="inline" fill="none" stroke="#FFFFFF" stroke-width="8" stroke-miterlimit="10" d="M163.688,81.466V53.979
		c0-3.948-2.9-7.149-6.479-7.149H39.526c-3.579,0-6.477,3.201-6.477,7.149v82.991c0,3.948,2.898,7.145,6.477,7.145
		c0,0,20.213-0.272,21.294,0.85c3.608,3.746-4.92,18.115-13.557,23.675c-9.45,6.086,32.341,6.327,40.129-23.727
		c0.122-0.466,0.5-0.593,10.977-0.708"/>
	<path display="inline" fill="none" stroke="#FFFFFF" stroke-width="8" stroke-linecap="round" stroke-miterlimit="10" d="
		M173.406,172.529c-0.299-1.126-58.493-0.644-58.493-0.644c-2.995,0-5.426-2.581-5.426-5.778V99.066
		c0-3.191,2.431-5.775,5.426-5.775h98.598c3,0,5.427,2.584,5.427,5.775v67.045c0,3.193-2.431,5.778-5.427,5.778
		c0,0-16.936-0.221-17.841,0.688c-3.026,3.031,4.12,14.634,11.361,19.123C214.947,196.612,179.934,196.809,173.406,172.529z"/>
	
		<text transform="matrix(1 0 0 1 246.1143 143.4136)" display="inline" fill="#FFFFFF" font-family="'Antipasto'" font-size="145.6799">SalesPS</text>
	
		<text transform="matrix(1 0 0 1 252.7222 195.3501)" display="inline" fill="#FFFFFF" font-family="'Duepuntozero'" font-size="60.6999">create opportunity</text>
</g>
<g id="Layer_5" display="none">
	<path display="inline" fill="#FFFFFF" stroke="#000000" stroke-width="8" stroke-linecap="round" stroke-miterlimit="10" d="
		M163.688,81.466V53.979c0-3.948-2.9-7.149-6.479-7.149H39.526c-3.579,0-6.477,3.201-6.477,7.149v82.991
		c0,3.948,2.898,7.145,6.477,7.145c0,0,20.213-0.272,21.294,0.85c3.608,3.746-4.92,18.115-13.557,23.675
		c-9.45,6.086,32.341,6.327,40.129-23.727c0.122-0.466,0.5-0.593,10.977-0.708"/>
	<path display="inline" fill="#FFFFFF" stroke="#000000" stroke-width="8" stroke-linecap="round" stroke-miterlimit="10" d="
		M173.406,172.529c-0.299-1.126-58.493-0.644-58.493-0.644c-2.995,0-5.426-2.581-5.426-5.778V99.066
		c0-3.191,2.431-5.775,5.426-5.775h98.598c3,0,5.427,2.584,5.427,5.775v67.045c0,3.193-2.431,5.778-5.427,5.778
		c0,0-16.936-0.221-17.841,0.688c-3.026,3.031,4.12,14.634,11.361,19.123C214.947,196.612,179.934,196.809,173.406,172.529z"/>
	<text transform="matrix(1 0 0 1 246.1143 143.4136)" display="inline" font-family="'Antipasto'" font-size="145.6799">SalesPS</text>
	<text transform="matrix(1 0 0 1 252.7222 195.3501)" display="inline" font-family="'Duepuntozero'" font-size="60.6999">create opportunity</text>
</g>
</svg>
